<svg width="75" height="26" viewBox="0 0 75 26" fill="none" xmlns="http://www.w3.org/2000/svg">
<path d="M4.32422 20.1289L4.46484 22.6953C4.46484 22.8359 4.45312 23.0938 4.42969 23.4688C4.42969 23.8438 4.28906 24.1836 4.00781 24.4883C3.75 24.7695 3.42188 24.9102 3.02344 24.9102C2.64844 24.9102 2.35547 24.8984 2.14453 24.875C1.37109 24.875 0.984375 24.5352 0.984375 23.8555C0.984375 23.293 1.24219 21.0312 1.75781 17.0703C2.27344 13.0859 2.60156 10.5195 2.74219 9.37109C2.88281 8.22266 3 7.26172 3.09375 6.48828C3.21094 5.69141 3.29297 5.10547 3.33984 4.73047C3.38672 4.35547 3.45703 3.98047 3.55078 3.60547C3.64453 3.23047 3.78516 2.92578 3.97266 2.69141C4.32422 2.24609 5.00391 2.02344 6.01172 2.02344C7.69922 2.86719 9.43359 5.25781 11.2148 9.19531C12.4805 12.0078 13.3242 13.7891 13.7461 14.5391C14.168 15.2891 14.5781 15.8047 14.9766 16.0859L22.0078 3.85156C22.5 3.5 22.875 3.32422 23.1328 3.32422C23.8828 3.32422 24.457 3.66406 24.8555 4.34375C25.2539 5.02344 25.582 5.85547 25.8398 6.83984C26.1211 7.80078 26.3555 8.86719 26.543 10.0391C26.7539 11.2109 26.9297 12.4414 27.0703 13.7305C27.2344 14.9961 27.3867 16.2383 27.5273 17.457C27.8555 20.3867 28.1016 22.2266 28.2656 22.9766C28.4531 23.7266 28.5469 24.2656 28.5469 24.5938C28.5469 24.8984 28.4414 25.2031 28.2305 25.5078C28.0195 25.7891 27.7266 25.9297 27.3516 25.9297C26.9766 25.9297 26.6016 25.7891 26.2266 25.5078C25.8516 25.2031 25.6172 24.8398 25.5234 24.418C25.4531 23.9727 25.3711 23.3984 25.2773 22.6953C25.207 21.9922 25.1133 21.207 24.9961 20.3398C24.8789 19.4492 24.7617 18.5234 24.6445 17.5625C24.5273 16.5781 24.4102 15.6406 24.293 14.75C24.1758 13.8594 24.0703 13.0742 23.9766 12.3945C23.8828 11.6914 23.8125 11.1641 23.7656 10.8125C23.7656 10.3438 23.7539 9.91016 23.7305 9.51172C23.707 9.11328 23.6133 8.86719 23.4492 8.77344C23.2852 8.67969 23.0273 8.79688 22.6758 9.125C22.3477 9.42969 21.8789 10.0625 21.2695 11.0234C19.957 13.0625 18.0586 16.4961 15.5742 21.3242C15.2461 21.9102 14.8125 22.0391 14.2734 21.7109C13.6406 21.3594 13.1016 20.457 12.6562 19.0039L6.1875 5.25781C5.625 6.38281 5.10938 10.1094 4.64062 16.4375C4.57031 17.2109 4.52344 17.8672 4.5 18.4062C4.38281 18.9922 4.32422 19.5664 4.32422 20.1289ZM31.2891 25.4727C31.2891 25.3789 31.3125 25.2383 31.3594 25.0508C31.4297 24.8633 31.4883 24.3828 31.5352 23.6094C31.6055 22.8359 31.6523 21.9102 31.6758 20.832C31.7227 19.7305 31.7578 18.5352 31.7812 17.2461C31.8281 15.9336 31.8633 14.5977 31.8867 13.2383C31.9336 11.8789 31.9805 10.5547 32.0273 9.26562C32.0742 7.95312 32.1445 6.75781 32.2383 5.67969C32.4492 3.33594 32.7305 1.94141 33.082 1.49609C33.2695 0.957031 33.9023 0.6875 34.9805 0.6875C34.9805 0.6875 35.1445 0.6875 35.4727 0.6875C35.4727 1.57813 35.3672 3.45312 35.1562 6.3125C34.9688 9.17188 34.8633 10.8711 34.8398 11.4102C36.3633 10.6367 37.8281 9.80469 39.2344 8.91406C40.6641 8 41.9883 7.16797 43.207 6.41797C44.4492 5.64453 45.5742 5.01172 46.582 4.51953C47.5898 4.00391 48.3398 3.74609 48.832 3.74609C49.6523 3.74609 50.0625 4.0625 50.0625 4.69531C50.0625 5.1875 49.6875 5.73828 48.9375 6.34766C48.1875 6.93359 47.25 7.55469 46.125 8.21094C45 8.84375 43.7695 9.48828 42.4336 10.1445C41.1211 10.8008 39.9023 11.4453 38.7773 12.0781C37.6523 12.6875 36.7148 13.2617 35.9648 13.8008C35.2148 14.3398 34.8398 14.8086 34.8398 15.207C35.2617 15.4648 35.9531 15.8164 36.9141 16.2617C37.8984 16.6836 38.9883 17.1758 40.1836 17.7383C41.4023 18.2773 42.6562 18.8633 43.9453 19.4961C45.2578 20.1055 46.4531 20.7266 47.5312 21.3594C49.9688 22.7422 51.1875 23.8906 51.1875 24.8047C51.1875 25.1094 50.9883 25.3203 50.5898 25.4375C50.4258 25.4844 50.2617 25.5078 50.0977 25.5078H49.7461C48.6211 25.5078 47.5664 25.2383 46.582 24.6992C45.5977 24.1602 44.543 23.5156 43.418 22.7656C42.3164 22.0156 41.0625 21.2422 39.6562 20.4453C38.25 19.625 36.5508 18.9453 34.5586 18.4062V25.4375C34.5117 25.5312 34.3008 25.6367 33.9258 25.7539C33.3867 25.918 32.8125 26 32.2031 26C31.5938 26 31.2891 25.8242 31.2891 25.4727ZM68.8008 8.73828L65.6719 8.66797C64.8516 8.66797 63.9023 8.75 62.8242 8.91406C62.7773 9.82812 62.6836 11.0117 62.543 12.4648C62.0508 17.6211 61.8047 20.9727 61.8047 22.5195C61.8047 24.043 61.8281 25.1211 61.875 25.7539L58.5703 26L59.6602 8.63281L52.1719 8.21094C51.9844 8.21094 51.832 8.05859 51.7148 7.75391C51.6211 7.44922 51.5742 7.16797 51.5742 6.91016C51.5742 6.65234 51.6797 6.37109 51.8906 6.06641C52.1016 5.76172 52.3477 5.60938 52.6289 5.60938C54.3398 5.67969 56.0625 5.79688 57.7969 5.96094C61.0078 6.24219 63.7383 6.38281 65.9883 6.38281L68.168 6.3125C69.8789 6.26562 71.5781 6.07813 73.2656 5.75C73.6406 5.82031 73.875 6.40625 73.9688 7.50781C73.9922 7.74219 74.0039 7.92969 74.0039 8.07031C72.457 8.51562 70.7227 8.73828 68.8008 8.73828Z" fill="#0D6EFD"/>
</svg>
